<?xml version="1.0" encoding="utf-8"?>
<!-- Generator: Adobe Illustrator 16.0.4, SVG Export Plug-In . SVG Version: 6.00 Build 0)  -->
<!DOCTYPE svg PUBLIC "-//W3C//DTD SVG 1.1//EN" "http://www.w3.org/Graphics/SVG/1.1/DTD/svg11.dtd">
<svg version="1.1" id="wheat" xmlns="http://www.w3.org/2000/svg" xmlns:xlink="http://www.w3.org/1999/xlink" x="0px" y="0px"
	 width="48.7px" height="53.265px" viewBox="12.59 -1.864 48.7 53.265" enable-background="new 12.59 -1.864 48.7 53.265"
	 xml:space="preserve">
<g>
	<path fill="ffffff" d="M21.639,4.772h-5.463c0.329,7.23,2.927,12.619,5.455,13.384c-0.059-0.54-0.09-1.089-0.09-1.646
		c0-0.919,0.008-2.831,0.021-5.098C21.575,9.299,21.608,6.868,21.639,4.772z"/>
	<path fill="ffffff" d="M52.505,11.414c0.015,2.268,0.022,4.181,0.022,5.098c0,0.533-0.029,1.06-0.084,1.579
		c2.466-0.977,4.94-6.275,5.261-13.318h-5.285C52.454,6.87,52.49,9.299,52.505,11.414z"/>
	<path class="svg-white" d="M61.286,3.084c-0.072-1.834-2.06-1.834-3.377-1.834h-5.557c-0.017-0.947-0.03-1.531-0.03-1.531
		c-0.019-0.87-0.752-1.583-1.633-1.583H23.352c-0.878,0-1.612,0.713-1.627,1.584c0,0-0.012,0.583-0.03,1.531h-5.726
		c-1.317,0-3.31,0-3.378,1.837L12.59,3.223c0,10.556,4.494,18.761,9.982,18.793c1.969,5.088,6.582,8.873,12.175,9.695
		c0.168,0.024,0.168,0.024,0.168,0.024c0.189,0.017,0.344,0.089,0.345,0.158c0,0,0,0,0,0.067c0,4.867-1.057,8.215-2.779,11.38
		h-0.004c-0.094,0.174-0.191,0.346-0.288,0.518c-1.838,3.221-4.329,5.934-7.118,6.221c-0.231,0.023-0.633,0.152-0.633,0.645
		c0,0.677,0.569,0.677,2.045,0.677h21.102c1.477,0,2.046,0,2.046-0.677c0-0.492-0.402-0.621-0.634-0.645
		c-2.789-0.287-5.278-3-7.117-6.221c-0.098-0.172-0.193-0.344-0.287-0.518h-0.001c-1.723-3.165-2.779-6.513-2.779-11.38
		c0-0.067,0-0.067,0-0.067c0-0.069,0.155-0.14,0.344-0.158c0,0,0,0,0.17-0.024c5.605-0.825,10.231-4.63,12.19-9.741
		c5.489-0.023,9.774-8.186,9.774-18.748L61.286,3.084z M21.631,18.156c-2.528-0.765-5.126-6.154-5.455-13.384h5.463
		c-0.031,2.096-0.063,4.527-0.076,6.642c-0.015,2.267-0.021,4.179-0.021,5.098C21.541,17.067,21.573,17.616,21.631,18.156z
		 M52.444,18.09c0.055-0.519,0.084-1.045,0.084-1.579c0-0.917-0.008-2.83-0.022-5.098c-0.015-2.114-0.05-4.544-0.086-6.642h5.285
		C57.383,11.815,54.909,17.113,52.444,18.09z"/>
</g>
</svg>
