<?xml version="1.0" encoding="utf-8"?>
<!-- Generator: Adobe Illustrator 16.0.4, SVG Export Plug-In . SVG Version: 6.00 Build 0)  -->
<!DOCTYPE svg PUBLIC "-//W3C//DTD SVG 1.1//EN" "http://www.w3.org/Graphics/SVG/1.1/DTD/svg11.dtd">
<svg version="1.1" id="Ebene_1" xmlns="http://www.w3.org/2000/svg" xmlns:xlink="http://www.w3.org/1999/xlink" x="0px" y="0px"
	 width="67.517px" height="55.418px" viewBox="17.61 10.741 67.517 55.418" enable-background="new 17.61 10.741 67.517 55.418"
	 xml:space="preserve">
<g id="Captions">
</g>
<g id="Your_Icon">
	<path d="M83.619,29.602l-2.797-3.861c-1.98-1.375-4.307-4.344-5.168-6.595l-1.647-4.311c-0.858-2.251-3.538-4.094-5.949-4.094
		H34.833c-2.411,0-5.102,1.837-5.981,4.082l-1.683,4.318c-0.88,2.246-3.219,5.204-5.206,6.57l-2.839,3.892
		c-0.833,2.263-1.514,6.087-1.514,8.502v23.673c0,2.407,1.974,4.382,4.385,4.382h3.61c2.411,0,4.386-1.48,4.386-3.29
		c0-1.812,1.974-3.292,4.385-3.292h33.984c2.412,0,4.386,1.479,4.386,3.292c0,1.81,1.976,3.29,4.386,3.29h3.611
		c2.41,0,4.385-1.975,4.385-4.382V38.104C85.128,35.689,84.448,31.866,83.619,29.602z M30.199,23.564l2.759-7.225h37.357
		l2.273,7.145c0.731,2.299-0.646,4.177-3.058,4.177H33.02C30.608,27.662,29.339,25.819,30.199,23.564z M35.131,46.577
		c0,2.421-1.962,4.382-4.382,4.382h-3.771c-2.423,0-4.385-1.961-4.385-4.382v-3.412c0-2.422,1.961-4.384,4.385-4.384h3.771
		c2.42,0,4.382,1.962,4.382,4.384V46.577z M60.121,56.812H42.615v-3.807h17.506V56.812z M79.66,46.577
		c0,2.421-1.961,4.382-4.384,4.382h-3.769c-2.424,0-4.388-1.961-4.388-4.382v-3.412c0-2.422,1.964-4.384,4.388-4.384h3.769
		c2.423,0,4.384,1.962,4.384,4.384V46.577z"/>
</g>
</svg>
