<?xml version="1.0" encoding="utf-8"?>
<!-- Generator: Adobe Illustrator 16.0.4, SVG Export Plug-In . SVG Version: 6.00 Build 0)  -->
<!DOCTYPE svg PUBLIC "-//W3C//DTD SVG 1.1//EN" "http://www.w3.org/Graphics/SVG/1.1/DTD/svg11.dtd">
<svg version="1.1" id="Ebene_1" xmlns="http://www.w3.org/2000/svg" xmlns:xlink="http://www.w3.org/1999/xlink" x="0px" y="0px"
	 width="61.586px" height="51.897px" viewBox="20.51 5.185 61.586 51.897" enable-background="new 20.51 5.185 61.586 51.897"
	 xml:space="preserve">
<g id="Your_Icon">
	<path d="M56.283,24.936c-1.507,0.812-3.215,1.246-4.939,1.252c-2.804,0.013-5.446-1.07-7.438-3.044
		c-1.991-1.975-3.092-4.609-3.106-7.414c-0.015-3.885,2.1-7.444,5.522-9.29c1.507-0.813,3.213-1.247,4.938-1.254
		c2.804-0.012,5.446,1.07,7.438,3.046c1.991,1.976,3.093,4.608,3.107,7.412C61.82,19.528,59.706,23.089,56.283,24.936L56.283,24.936
		z"/>
	<path d="M74.971,30.962c-1.133,0.609-2.416,0.936-3.713,0.94c-2.107,0.01-4.093-0.804-5.59-2.288
		c-1.497-1.484-2.324-3.463-2.334-5.572c-0.012-2.919,1.578-5.595,4.15-6.981c1.132-0.611,2.416-0.937,3.711-0.942
		c2.107-0.009,4.094,0.804,5.591,2.289c1.497,1.484,2.324,3.464,2.335,5.57C79.131,26.898,77.542,29.573,74.971,30.962
		L74.971,30.962z"/>
	<path d="M59.825,25.987c-0.749,0.684-1.583,1.243-2.499,1.736c-1.826,0.984-3.891,1.536-5.975,1.536h-0.055
		c-3.178,0-6.181-1.182-8.522-3.315c-1.295,0.947-2.423,2.06-3.34,3.389l0.529,0.357c3.458,2.529,5.523,6.577,5.523,10.852
		c0,3.368-1.338,7.516-3.606,10.901c2.531,3.301,5.822,5.639,9.422,5.639c3.605,0,6.899-2.337,9.432-5.631
		c-2.274-3.388-3.617-7.554-3.617-10.928c0-4.278,2.063-8.342,5.52-10.87l0.467-0.341C62.196,28.039,61.092,26.911,59.825,25.987z"
		/>
	<path d="M77.633,31.751c-0.564,0.515-1.189,1.051-1.878,1.422c-1.374,0.739-2.926,1.271-4.491,1.271h-0.041
		c-2.389,0-4.646-1.004-6.404-2.608c-2.702,1.978-4.461,5.129-4.461,8.735c0,6.003,4.866,14.599,10.869,14.599
		s10.869-8.627,10.869-14.63C82.096,36.934,80.338,33.729,77.633,31.751z"/>
	<path d="M35.122,30.962c-1.132,0.609-2.416,0.936-3.712,0.94c-2.107,0.01-4.093-0.804-5.59-2.288
		c-1.497-1.484-2.324-3.463-2.334-5.572c-0.011-2.919,1.579-5.595,4.151-6.981c1.132-0.611,2.416-0.937,3.711-0.942
		c2.107-0.009,4.094,0.804,5.59,2.289c1.498,1.484,2.325,3.464,2.335,5.57C39.283,26.898,37.693,29.573,35.122,30.962L35.122,30.962
		z"/>
	<path d="M37.783,31.751c-0.563,0.515-1.19,1.051-1.877,1.422c-1.373,0.739-2.926,1.271-4.49,1.271h-0.042
		c-2.388,0-4.646-1.004-6.405-2.608c-2.702,1.978-4.459,5.129-4.459,8.735c0,6.003,4.866,14.599,10.869,14.599
		s10.868-8.627,10.868-14.63C42.247,36.934,40.489,33.729,37.783,31.751z"/>
</g>
</svg>
