<?xml version="1.0" encoding="utf-8"?>
<!-- Generator: Adobe Illustrator 16.0.4, SVG Export Plug-In . SVG Version: 6.00 Build 0)  -->
<!DOCTYPE svg PUBLIC "-//W3C//DTD SVG 1.1//EN" "http://www.w3.org/Graphics/SVG/1.1/DTD/svg11.dtd">
<svg version="1.1" id="Ebene_1" xmlns="http://www.w3.org/2000/svg" xmlns:xlink="http://www.w3.org/1999/xlink" x="0px" y="0px"
	 width="50.692px" height="59.26px" viewBox="25.371 4.752 50.692 59.26" enable-background="new 25.371 4.752 50.692 59.26"
	 xml:space="preserve">
<g id="Your_Icon">
	<path fill="#333333" d="M57.965,4.752c-5.205,0-9.889,2.197-13.193,5.714c1.146,0.082,2.275,0.27,3.366,0.53
		c0.53,0.124,1.052,0.285,1.567,0.456c2.329-1.683,5.174-2.678,8.259-2.678c7.792,0,14.083,6.301,14.083,14.088
		c0,6.477-4.377,11.917-10.326,13.554c-0.012,0.054-0.039,0.106-0.051,0.158c-1.668,4.696-4.613,10.294-7.641,15.421
		c-0.014,0.035-0.043,0.061-0.05,0.096c2.098,3.021,3.679,4.973,3.985,4.973c1.098,0,18.098-24.587,18.098-34.201
		C76.062,12.858,67.955,4.752,57.965,4.752z"/>
	<path fill="#333333" d="M47.768,12.227c-1.378-0.332-2.812-0.529-4.293-0.529c-0.159,0-0.298,0.013-0.453,0.024
		c-9.798,0.238-17.651,8.232-17.651,18.083c0,9.613,17.003,34.207,18.103,34.207c0.563,0,5.263-6.402,9.74-13.959
		c2.802-4.714,5.5-9.892,7.041-14.227c0.83-2.308,1.316-4.387,1.316-6.021C61.571,21.287,55.686,14.16,47.768,12.227z
		 M48.652,42.902c-1.604,0.631-3.351,0.981-5.178,0.981c-7.779,0-14.088-6.291-14.088-14.079c0-6.901,4.956-12.622,11.503-13.843
		c0.83-0.15,1.709-0.242,2.585-0.242c0.617,0,1.208,0.053,1.806,0.123c6.927,0.897,12.281,6.786,12.281,13.962
		c0,2.185-0.512,4.253-1.406,6.092C54.635,39.084,51.953,41.594,48.652,42.902z"/>
</g>
</svg>
